<?xml version="1.0" encoding="UTF-8"?>
<svg id="Layer_2" data-name="Layer 2" xmlns="http://www.w3.org/2000/svg" viewBox="0 0 318.34 318.34">
  <defs>
    <style>
      .cls-1 {
        fill: #f1f0f0;
      }

      .cls-2 {
        fill: #f18442;
        stroke: #f18442;
        stroke-miterlimit: 10;
        stroke-width: 3px;
      }
    </style>
  </defs>
  <g id="Layer_2-2" data-name="Layer 2">
    <g>
      <circle class="cls-1" cx="159.17" cy="159.17" r="159.17"/>
      <rect class="cls-2" x="151.92" y="107.06" width="11.74" height="102.13" rx="5.87" ry="5.87"/>
      <rect class="cls-2" x="171.36" y="125.85" width="11.74" height="66.64" rx="5.87" ry="5.87"/>
      <rect class="cls-2" x="190.77" y="138.21" width="11.74" height="38.81" rx="5.87" ry="5.87"/>
      <path class="cls-2" d="m217.35,171.78h0c-3.24,0-5.87-2.63-7.24-5.87v-15.32c1.37-3.24,4-5.87,7.24-5.87h0c3.24,0,5.87,2.63,5.87,5.87v15.32c0,3.24-2.63,5.87-5.87,5.87Z"/>
      <path class="cls-2" d="m238.29,196.55h0c-3.24,0-5.87-2.63-5.87-5.87v-66.13c0-3.24,2.63-5.87,5.87-5.87h0c3.24,0,5.87,2.63,4.5,5.87v66.13c1.37,3.24-1.26,5.87-4.5,5.87Z"/>
      <rect class="cls-2" x="251.82" y="98.12" width="11.74" height="121.28" rx="5.87" ry="5.87"/>
      <path class="cls-2" d="m138.27,171.14h0c-3.24,0-5.87-2.63-5.87-5.87v-14.68c0-3.24,2.63-5.87,5.87-5.87h0c3.24,0,5.87,2.63,4.5,5.87v14.68c1.37,3.24-1.26,5.87-4.5,5.87Z"/>
      <path class="cls-2" d="m118.29,198.34h0c-3.24,0-5.87-2.63-7.24-5.87v-66.89c1.37-3.24,4-5.87,7.24-5.87h0c3.24,0,5.87,2.63,5.87,5.87v66.89c0,3.24-2.63,5.87-5.87,5.87Z"/>
      <path class="cls-2" d="m98.63,217.74h0c-3.24,0-5.87-2.63-5.87-5.87v-107.11c0-3.24,2.63-5.87,5.87-5.87h0c3.24,0,5.87,2.63,4.5,5.87v107.11c1.37,3.24-1.26,5.87-4.5,5.87Z"/>
      <rect class="cls-2" x="71.6" y="131.7" width="11.74" height="52.47" rx="5.87" ry="5.87"/>
      <path class="cls-2" d="m59.31,169.74h0c-3.24,0-5.87-2.63-5.87-5.87v-13.28c0-3.24,2.63-5.87,5.87-5.87h0c3.24,0,4.5,2.63,4.5,5.87l1.37,13.28c0,3.24-2.63,5.87-5.87,5.87Z"/>
    </g>
  </g>
</svg>